<svg xmlns="http://www.w3.org/2000/svg" width="32" height="31.671" viewBox="0 0 32 31.671"><defs><style>.a{fill:#1f394e;}.b{fill:#fff;}</style></defs><g transform="translate(0.26 -0.231)"><g transform="translate(-0.26 0.231)"><ellipse class="a" cx="16" cy="15.836" rx="16" ry="15.836"/><path class="b" d="M6.437,7.333h0A32.442,32.442,0,0,1,1.581,6.94C.512,6.773.01,6.628,0,6.484c-.008-.118.3-.226.651-.351.384-.136.82-.29.929-.491l.046-.084a4.372,4.372,0,0,1,1.839-2.08.663.663,0,0,1,.233-.05c.285,0,.369.279.418.582.008.051.015.1.022.152.032.231.06.43.176.43a.184.184,0,0,0,.092-.031,3.369,3.369,0,0,0,.622-.924C5.573,2.674,6.4,1.22,7.421,1.1a2.057,2.057,0,0,1,.242-.015c1.1,0,1.492,1.006,1.945,2.171.084.215.17.436.263.657.1.248.21.478.313.7.33.716.59,1.282.44,1.713a1.12,1.12,0,0,1-.752.615A11.242,11.242,0,0,1,6.437,7.333ZM2.7,2.583A1.215,1.215,0,0,1,1.585,1.292,1.215,1.215,0,0,1,2.7,0,1.215,1.215,0,0,1,3.82,1.292,1.215,1.215,0,0,1,2.7,2.583Z" transform="translate(10.667 12.162)"/></g></g></svg>